<?xml version="1.0" standalone="no"?>
<!DOCTYPE svg PUBLIC "-//W3C//DTD SVG 20010904//EN"
 "http://www.w3.org/TR/2001/REC-SVG-20010904/DTD/svg10.dtd">
<svg version="1.0" xmlns="http://www.w3.org/2000/svg"
 width="1000.000000pt" height="1000.000000pt" viewBox="0 0 1000.000000 1000.000000"
 preserveAspectRatio="xMidYMid meet">
<metadata>
Created by potrace 1.11, written by Peter Selinger 2001-2013
</metadata>
<g transform="translate(0.000000,1000.000000) scale(0.100000,-0.100000)"
fill="#000000" stroke="none">
<path d="M4719 9996 c-2 -2 -50 -7 -107 -11 -57 -3 -113 -8 -125 -10 -12 -2
-47 -7 -77 -10 -30 -3 -66 -7 -80 -9 -14 -2 -47 -7 -75 -11 -27 -4 -57 -8 -65
-10 -138 -26 -189 -36 -210 -40 -14 -3 -36 -7 -50 -10 -14 -2 -79 -18 -145
-35 -66 -17 -127 -33 -135 -35 -50 -12 -268 -83 -354 -115 -437 -162 -800
-353 -1174 -618 -108 -76 -320 -238 -342 -262 -3 -3 -43 -39 -90 -80 -192
-168 -444 -434 -595 -628 -5 -7 -15 -18 -21 -25 -6 -7 -45 -59 -87 -117 -43
-58 -81 -109 -85 -115 -42 -54 -215 -332 -281 -455 -188 -344 -385 -842 -455
-1150 -2 -8 -9 -33 -15 -55 -12 -48 -71 -337 -77 -380 -2 -16 -6 -46 -9 -65
-3 -19 -8 -51 -10 -70 -3 -19 -7 -55 -10 -80 -3 -25 -7 -60 -10 -78 -27 -224
-28 -831 0 -1037 2 -16 7 -57 10 -90 3 -33 10 -85 15 -115 5 -30 11 -71 14
-90 7 -49 43 -232 60 -311 50 -228 189 -658 271 -834 7 -16 21 -48 31 -70 63
-148 229 -464 310 -592 94 -147 128 -198 136 -201 4 -2 8 -8 8 -13 0 -7 154
-224 170 -239 3 -3 32 -39 65 -80 174 -218 471 -519 695 -703 95 -78 279 -217
288 -217 6 0 12 -4 14 -8 8 -19 299 -206 453 -292 352 -194 712 -343 1075
-443 121 -34 242 -65 284 -73 12 -2 44 -8 71 -14 107 -22 193 -37 260 -46 28
-3 59 -8 70 -10 11 -2 45 -6 75 -9 30 -3 69 -8 85 -10 112 -15 237 -20 500
-20 304 0 471 8 620 30 17 2 53 7 80 10 28 3 73 10 100 15 28 5 66 12 85 14
19 3 46 8 60 11 14 2 50 10 80 16 397 80 798 216 1171 398 200 97 508 272 517
293 2 5 8 8 13 8 16 0 305 204 376 265 7 5 18 15 25 20 30 23 196 162 233 195
75 67 321 315 390 394 39 44 75 84 80 90 6 6 32 38 58 71 26 33 55 68 63 79
43 51 160 214 231 321 351 524 610 1147 732 1755 19 95 21 103 32 170 5 36 12
76 14 90 2 14 7 48 11 75 3 28 8 59 10 70 19 97 28 943 12 1100 -96 921 -419
1753 -965 2490 -337 455 -768 863 -1238 1175 -77 51 -152 101 -167 111 -15 11
-30 19 -33 19 -3 0 -22 10 -43 23 -92 58 -382 208 -492 256 -30 12 -68 29 -85
36 -199 86 -584 216 -710 241 -11 2 -56 13 -100 23 -186 46 -468 92 -638 106
-43 4 -88 9 -100 12 -24 6 -692 14 -698 9z"/>
</g>
</svg>
